<svg xmlns="http://www.w3.org/2000/svg" viewBox="0 0 700 700">
  <defs>
    <linearGradient id="bone">
      <stop stop-color="#CCBB77"/>
    </linearGradient>
    <radialGradient id="gradient-eyes" cx="50%" cy="30%" r="75%" fx="50%" fy="30%">
      <stop offset="0%" stop-color="#AAEEFF"/>
      <stop offset="80%" stop-color="#336699"/>
      <stop offset="100%" stop-color="#003388"/>
    </radialGradient>
    <radialGradient id="gradient-badge" cx="75%" cy="10%" r="90%" fx="75%" fy="10%">
      <stop offset="0%" stop-color="#FFFFFF"/>
      <stop offset="10%" stop-color="#DDDDBB"/>
      <stop offset="80%" stop-color="#BB9900"/>
      <stop offset="100%" stop-color="#997700"/>
    </radialGradient>
    <filter id="filter-glow">
      <feDropShadow dx="0" dy="0" stdDeviation="1" flood-color="#FFF" flood-opacity="1" />
      <feDropShadow dx="0" dy="0" stdDeviation="8" flood-color="#AA00FF" flood-opacity="0.5" />
      <feDropShadow dx="0" dy="0" stdDeviation="4" flood-color="#00AAFF" flood-opacity="1" />
    </filter>
  </defs>
  <path id="background" fill="#333355" d="M700 0v700H0V0h700Z"/>
  <g id="reaper">
    <path id="hood-bg" d="M358.501 566.75c2.228 14.343 55.062 98.272 77 112.779 28.826-19.952 50.042-80.684 56.501-90.999 4.635-20.05 5.357-36.778 3.499-58-7.324-11.712-23.149-21.088-26.501-23.002-.157-41.019-3.285-83.846-2.998-152.5-9.887-63.331-14.99-67.553-23-113.501-7.279-35.958-18.103-65.147-26.501-74.195-10.003-14.443-13.592-23.364-30-45.305-10.76-39.333-24.729-116.65-37.5-115.001-12.067-.849-32.29 110.933-41.501 115.001-17.088 17.048-21.786 25.818-36 45.305-18.953 43.501-28.193 82.605-39.5 148.696-7.214 47.274-4.67 142.355-9.5 195.999-7.282 2.804-16.264 10.034-19.5 15.503 1.87 24.249-1.497 51.047 10 86.88 11.277 32.152 42.27 69.247 49.5 69.62 5.296-.758 71.777-79.367 76.001-117.28-7.393-.123 39.466 4.932 20 0Z"/>
    <path id="skull" fill="url(#bone)" d="M348.094 131.026c105.742 3.867 97.503 173.153 78.501 185.002-9.905 11.332-23.825-6.457-32.501-4.001-12.288 2.562-8.471 30.817 0 35.19 5.892-1.362 4.989-33.453 7-33.69l10.5 4.999c-9.396 27.295 4.3 61.21 1.5 71.001-7.162 14.325-17.382 18.262-22 29.5-6.546 15.403 4.867 23.662-1.5 32.499-14.008 12.172-25.474 12.923-41.5 4.5v-325Zm0 0c-105.741 3.867-97.503 173.153-78.5 185.002 9.904 11.332 23.825-6.457 32.5-4.001 12.289 2.562 8.471 30.817 0 35.19-5.892-1.362-4.989-33.453-7-33.69l-10.5 4.999c9.397 27.295-4.3 61.21-1.5 71.001 7.162 14.325 17.382 18.262 22 29.5 6.546 15.403-4.867 23.662 1.5 32.499 14.009 12.172 25.475 12.923 41.5 4.5"/>
    <path id="eye-right" stroke="#000" stroke-width=".5" fill="url(#gradient-eyes)" transform="translate(261 224.164)" d="M107.711 52.883c-2.151-4.12-4.727-20.946 6.967-21.52 22.464-.507 42.249 8.116 39.322 23-2.623 10.99-8.576 13.5-17.921 13.5-9.346 0-22.699-3.438-28.368-14.98Z"/>
    <path id="eye-left" stroke="#000" stroke-width=".5" fill="url(#gradient-eyes)" transform="translate(261 224.164)" d="M63.577 53.405c2.151-4.121 4.727-20.947-6.967-21.522-22.464-.506-42.249 8.117-39.322 23 2.623 10.992 8.576 13.5 17.922 13.5 9.345 0 22.699-3.436 28.367-14.978Z"/>
    <path id="eyebrows" fill="none" stroke="#000" stroke-width=".5" d="M377.305 231.14c-9.964-8.077-19.755-9.175-23.305-3.114-3.551 6.061-2.135 15.614-1 18 1.136 2.386 8.297 14.347 19 10.5 10.703-3.847 33.536 3.108 44.5 10.5 7.393 4.925 15.5 11.5 15.5 11.5m-116.305-47.024c9.964-8.077 19.755-9.174 23.305-3.114 3.551 6.061 2.136 15.614 1 18-1.136 2.387-8.297 14.347-19 10.5-10.703-3.847-33.536 3.108-44.5 10.5-7.393 4.925-15.5 11.5-15.5 11.5"/>
    <path id="nose" d="M348.36 305.04c.91-2.78.616-5.808 6.5-6 4.084-.501 3.257 13.378.5 25.5-.426 5.356 4.322 10.777 3.5 16-2.815 3.19-7 3.51-10.5 1.77-.08-8.582-.769-34.935 0-37.27Zm-1.764 0c-.91-2.781-.617-5.808-6.5-6-4.085-.501-3.258 13.378-.5 25.5.426 5.355-4.322 10.777-3.5 16 2.815 3.19 7 3.51 10.5 1.77.08-8.582.768-34.935 0-37.27Z"/>
    <g id="teeth" fill="url(#bone)" stroke="#000" stroke-width=".5">
      <path d="M345 415.026c2.677-1.63 3.627-4.572 3-14.5-3.665.046-5.802-.123-8-.5-.056 9.606 1.069 12.096 5 15Z"/>
      <path d="M337.5 414.026c2.678-1.63 1.932-4.676 2.502-14-3.665.046-5.802-2.123-8-2.5-.056 9.606 1.567 13.596 5.498 16.5Z"/>
      <path d="M329.5 410.026c2.678-1.63 1.932-3.176 2.503-12.5-2.854-.705-5.19-2.914-7.503-4-.056 9.606 1.07 13.596 5 16.5Z"/>
      <path d="M319.5 405.026c2.678-1.63 4.434-2.176 5.005-11.5-2.854-.706-6.691-4.414-9.005-5.5-.056 9.606.069 14.096 4 17Z"/>
      <path d="M312 399.526c2.435-3.056 2.943-2.176 3.513-11.5-2.73-2.256-4.2-4.414-6.513-5.5-.056 9.606-.221 10.743 3 17Z"/>
      <path d="M305.521 389.026c2.436-3.056 1.524-3.209 3.513-6.5-1.728-3.55-3.8-5.977-5.034-7.5.878 6.002.16 8.513 1.521 14Zm45.851 26c-2.678-1.63-3.627-4.571-3-14.5 3.665.046 5.802-.123 8-.5.056 9.606-1.07 12.096-5 15Z"/>
      <path d="M358.872 414.026c-2.678-1.63-1.932-4.676-2.502-14 3.664.046 5.802-2.123 8-2.5.056 9.606-1.567 13.596-5.498 16.5Z"/>
      <path d="M366.871 410.026c-2.677-1.63-1.931-3.176-2.502-12.5 2.854-.705 5.19-2.914 7.503-4 .056 9.606-1.07 13.596-5 16.5Z"/>
      <path d="M376.872 405.026c-2.678-1.63-4.434-2.176-5.005-11.5 2.854-.705 6.691-4.414 9.005-5.5.056 9.606-.07 14.096-4 17Z"/>
      <path d="M384.372 399.526c-2.436-3.056-2.943-2.176-3.513-11.5 2.73-2.256 4.2-4.414 6.513-5.5.056 9.606.22 10.744-3 17Z"/>
      <path d="M390.85 389.026c-2.435-3.056-1.524-3.209-3.512-6.5 1.727-3.55 3.8-5.978 5.034-7.5-.878 6.002-.16 8.513-1.521 14ZM355 379.808c2.234 1.428 5.497 3.588 6 17.718-1.831 3.236-11.373 3.147-13 2.5-1.075-18.639 4.895-19.208 7-20.218Zm11-.782c1.01 1.01 5.165 2.257 4.5 14-2.295 2.824-7.872 4.867-9.5 4.22-.368-14.796.86-14.394 5-18.22Z"/>
      <path d="M375.938 375.026c3.199 2.778 3.56 6.668 1.562 17 .07 1.335-4.806 1.865-6.434 1.218-1.5-9.774 2.144-15.072 4.872-18.218Z"/>
      <path d="M383.222 370.026c1.573 2.915 2.173 5.223 1.562 17 .07 1.335-4.806 1.865-6.434 1.218.807-13.423 2.144-15.072 4.872-18.218Z"/>
      <path d="M388.872 361.026c1.573 2.915 1.43 6.241 1.562 17 .07 1.335-3.806 6.647-5.434 6 .206-16.265 1.144-19.854 3.872-23Zm4.128-5c1.573 2.915 1.24 4.241 1.372 15 .07 1.335-2.244 6.647-3.872 6 .206-16.265-.228-17.854 2.5-21Zm-52.128 23.782c-2.234 1.428-5.497 3.588-6 17.718 1.831 3.236 11.373 3.147 13 2.5 1.075-18.639-4.895-19.208-7-20.218Zm-11-.782c-1.01 1.01-5.165 2.258-4.5 14 2.294 2.824 7.872 4.867 9.5 4.22.368-14.797-.86-14.393-5-18.22Z"/>
      <path d="M319.934 375.026c-3.199 2.777-3.56 6.668-1.562 17-.07 1.335 4.806 1.865 6.433 1.218 1.501-9.774-2.143-15.072-4.871-18.218Z"/>
      <path d="M312.65 370.026c-1.573 2.915-2.173 5.223-1.562 17-.07 1.335 4.806 1.865 6.434 1.218-.807-13.423-2.144-15.072-4.872-18.218Z"/>
      <path d="M307 361.026c-1.573 2.915-1.43 6.241-1.562 17-.07 1.335 3.806 6.647 5.434 6-.206-16.265-1.144-19.854-3.872-23Zm-4.128-5c-1.573 2.915-1.24 4.241-1.372 15-.07 1.335 2.244 6.647 3.872 6-.206-16.265.228-17.854-2.5-21Z"/>
    </g>
    <g id="spine" fill="url(#bone)" opacity=".75">
      <path d="M327 466.056c10.462-4.53 13.866-.074 22.42 0 8.14.072 13.351-4.056 21.307 0-2.677 12.904 3.308 17.527-2.034 23.369-6.063 3.603-9.595 0-19.332 0-9.738 0-13.304 2.966-19.62 0-5.59-5.842 2.288-12.052-2.741-23.369Zm-1 25.97c15.154 8.18 15.43-.072 24.027 0 8.179.07 11.792 7.137 21.41 0-2.324 9.459 3.085 23.851-1.046 25.97-6.093 3.523-10.64-3.117-20.425-3.117-9.784 0-14.366 6.017-20.712 3.116-3.814-3.441-1.017-18.203-3.254-25.969Zm.428 29.001c13.364 4.954 15.356-.073 23.91 0 8.14.069 14.07 3.902 21.307 0-.715 10.43 1.814 20.908-1.04 25.968-6.064 3.524-12.577-3.116-22.314-3.116-9.738 0-14.297 6.017-20.612 3.116-3.797-3.441.25-18.015-1.251-25.968Z"/>
      <path d="M317 476.255c0-4.498 3.971-9.229 6.286-9.229 2.314 0 4.714 3.102 4.714 7.6 0 4.497-2.64 11.46-6.81 11.4-4.168-.062-4.19-5.274-4.19-9.772Zm64.5-.001c0-4.497-3.79-9.228-6-9.228s-4.5 3.103-4.5 7.6 2.52 11.46 6.5 11.4c3.98-.062 4-5.274 4-9.772Z"/>
      <path id="ribs" d="M325.054 494.026c-37.828 12.336-41.25 21.5-55 33.5-.002 7.55-.12 6.924 0 14.5 12.32-8.908 23.561-27.21 53.5-28 2.966-9.964 1.998-15.096 1.5-20Zm0 28.5c-37.828 12.336-41.25 21.5-55 33.5-.002 7.55-.12 6.924 0 14.5 12.32-8.908 23.561-27.21 53.5-28 2.966-9.964 1.998-15.096 1.5-20Zm0 28c-37.828 12.336-41.25 21.5-55 33.5-.002 7.55-.12 6.924 0 14.501 12.32-8.91 23.561-27.211 53.5-28 2.966-9.965 1.998-15.097 1.5-20.001Zm48.503-56c37.828 12.336 41.25 21.5 55 33.5.002 7.55.12 6.924 0 14.5-12.32-8.908-23.561-27.21-53.5-28-2.966-9.964-1.998-15.096-1.5-20Zm0 28.5c37.828 12.336 41.25 21.5 55 33.5.002 7.55.12 6.924 0 14.5-12.32-8.908-23.561-27.21-53.5-28-2.966-9.964-1.998-15.096-1.5-20Zm0 28c37.828 12.336 41.25 21.5 55 33.5.002 7.55.12 6.924 0 14.501-12.32-8.91-23.561-27.211-53.5-28-2.966-9.965-1.998-15.097-1.5-20.001Z"/>
    </g>
    <path id="hood-fg" stroke="#FFF" fill="#000" filter="url(#filter-glow)" d="M121.501 160.332c11.85-33.289 15.612-116.823 24.5-118.606 8.889-1.784 11.652 79.778 24 118.606 15.059 40.903 18.648 34.661 40.5 74.195 11.539 48.789 17.77 70.877 29.501 113.501 3.134 34.672-18.443 68.191-26.501 107.001-2.799 28.403-1.314 49.745 2.912 85.016 5.966 39.949 9.276 51.778 16.088 122.984-6.268-71.107-10.915-92.229-16.088-122.984-13.513 7.613-17.726 16.115-32.911 26.484-4.519.161-8.535-1.847-28.001-6.779 2.228 14.343 55.062 98.272 77 112.779 28.826-19.952 50.042-80.684 56.501-90.999 4.635-20.05 5.357-36.778 3.499-58-7.324-11.712-23.149-21.088-26.5-23.002-.158-41.019-3.285-83.846-2.999-152.5-9.887-63.331-14.99-67.553-23-113.501-7.278-35.958-18.103-65.147-26.501-74.195-10.003-14.443-13.592-23.364-29.999-45.305C172.741 75.694 158.772-1.623 146.001.026c-12.067-.849-32.29 110.933-41.501 115.001-17.088 17.048-21.786 25.818-36 45.305-18.953 43.501-28.193 82.605-39.5 148.696-7.214 47.274-4.67 142.355-9.5 195.999-7.282 2.804-16.264 10.034-19.5 15.503 1.87 24.249-1.497 51.047 10 86.88 11.277 32.152 42.27 69.247 49.5 69.62 5.296-.758 71.777-79.367 76.001-117.28-7.393-.123-22.156-.899-34.24 0-7.243-7.349-25.25-15.247-25.25-15.247s-6.883 31.726-11.01 63.733c-4.128 32.006-5.5 64.293-5.5 64.293s1.366-32.24 5.5-64.293c4.133-32.054 11.072-64.285 11.072-64.285s4.541-31.988 6.428-63.422c-7.113-55.045-23.82-117.64-27-153.501 3.167-47.889 12.525-76.211 20.535-99.898 11.222-18.91 37.944-49.218 45.465-66.798Z" transform="translate(203 7)"/>
    <g id="badge" transform="translate(312 545.026)">
      <path id="badge-bg" fill="url(#gradient-badge)" stroke="#FFF" stroke-width="2" d="M0 37C0 16.566 16.566 0 37 0s37 16.566 37 37-16.566 37-37 37S0 57.434 0 37Z"/>
      <path id="badge-fg" fill="none" stroke="#000" stroke-width="0.75" d="M18.024 53c-22.996-20.974.233-46.04 19-46 18.768.04 39.946 16.436 20 46 9.802.094 15.18-10.898 14.5-9-3.442 10.091-14.63 24-34 24 16.727-20.014 15.016-45.5 0-45.5-15.015 0-17.96 21.044 0 45.5-20.435 0-34.678-17.218-34-24 5.54 4.243 11.356 8.312 14.5 9Z"/>
    </g>
  </g>
</svg>
