<svg xmlns="http://www.w3.org/2000/svg" fill="none" viewBox="0 0 25 32">
<mask id="puzzle">
  <rect x="0" y="0" width="100%" height="100%" fill="white" />
  <path stroke-linecap="round" stroke-linejoin="round" transform="translate(9.5 16)" fill="white" stroke="black" stroke-width="2" d="M12.8776 6.39446L12.8776 3.06054L9.03481 3.06054C8.96795 3.06054 8.90196 3.04276 8.84521 3.00907C8.55305 2.83969 8.44344 2.40835 8.63419 2.11618L8.68188 2.06087L8.79753 1.95697C9.00802 1.74024 9.1242 1.45517 9.1242 1.15485C9.1242 0.517948 8.60596 0 7.96934 0C7.33244 0 6.81396 0.518188 6.81396 1.15485C6.81396 1.45498 6.93014 1.74024 7.14116 1.95754C7.16637 1.98251 7.19048 2.00197 7.2143 2.02138C7.25901 2.05704 7.30445 2.10468 7.33105 2.14417C7.52424 2.49107 7.38257 2.84626 7.10172 3.00959C7.04305 3.04329 6.97893 3.06054 6.91312 3.06054L3.06102 3.06054L3.06102 6.90301C3.06102 6.96862 3.04362 7.03347 3.01113 7.09017C2.89658 7.2883 2.68666 7.41123 2.46332 7.41123C2.34383 7.41123 2.22392 7.37395 2.11623 7.30311L2.03058 7.22571L1.96631 7.14912C1.73257 6.9263 1.45196 6.81382 1.155 6.81382C0.51795 6.81382 0 7.33177 0 7.96882C0 8.60587 0.51795 9.12391 1.155 9.12391C1.4556 9.12391 1.74038 9.00774 1.9574 8.79724C1.98208 8.77203 2 8.75037 2.01687 8.72899C2.05522 8.6813 2.10473 8.63419 2.14417 8.60759C2.25958 8.54332 2.36138 8.51715 2.46303 8.51715C2.68556 8.51715 2.89495 8.63923 3.0093 8.83601C3.04305 8.89381 3.06068 8.95919 3.06068 9.02537L3.06068 12.877L12.877 12.877L12.877 9.54342L12.484 9.71539C12.2431 9.82063 11.9868 9.87422 11.7221 9.87422C10.6714 9.87422 9.81641 9.01948 9.81641 7.96848C9.81641 6.91763 10.6714 6.06275 11.7221 6.06275C11.9871 6.06275 12.2434 6.11614 12.4845 6.22197L12.8776 6.39446L12.8776 6.39446Z" />
</mask>
<g transform="translate(0.25 0.44)" mask="url(#puzzle)">
  <path fill="#A079FF" d="M6.95 14.66c.64-.19 1.68-.48 2.87-.56a10.1 10.1 0 0 1-.75-4.79c.16-1.62.74-2.98 1.3-4.13l.34-.7.44-.9c.23-.49.4-.92.48-1.33.08-.4.08-.75-.02-1.09-.1-.34-.3-.7-.7-1.1a1.67 1.67 0 0 0-1.55.37L4.18 5.09c-.29.26-.48.61-.54 1L3.2 9.05a14.64 14.64 0 0 1 3.75 5.61ZM2.99 10.4l-.1.3-2.74 6.1a1.7 1.7 0 0 0 .32 1.86l4.31 4.43a8.7 8.7 0 0 0 .88-8.68 13.68 13.68 0 0 0-2.67-4.01Z" />
  <path fill="#A079FF" d="m5.78 23.62.23.02c.81.02 2.19.1 3.3.3.91.17 2.72.67 4.2 1.1 1.13.34 2.3-.57 2.46-1.74.12-.85.35-1.81.76-2.7a9.3 9.3 0 0 0-2.54-4.02 5.54 5.54 0 0 0-2.9-1.31 9.47 9.47 0 0 0-4.02.47 9.7 9.7 0 0 1-1.5 7.88Z" />
  <path fill="#A079FF" d="M17.45 19.4c.93-1.4 1.6-2.5 1.94-3.1a.85.85 0 0 0-.06-.93 18.2 18.2 0 0 1-2.14-3.52c-.58-1.39-.66-3.54-.67-4.58 0-.4-.12-.79-.37-1.1L12.8 1.92c0 .19-.04.38-.08.57a7.5 7.5 0 0 1-.56 1.56l-.46.96-.33.66a10.98 10.98 0 0 0-1.18 3.75 9.21 9.21 0 0 0 .85 4.7 6.66 6.66 0 0 1 3.88 1.62 9.75 9.75 0 0 1 2.53 3.66Z" />
</g>
<g transform="translate(9.75 16.44)">
  <path fill="#FFFFFF" stroke="none" stroke-linecap="round" stroke-linejoin="round" d="M12.8776 6.39446L12.8776 3.06054L9.03481 3.06054C8.96795 3.06054 8.90196 3.04276 8.84521 3.00907C8.55305 2.83969 8.44344 2.40835 8.63419 2.11618L8.68188 2.06087L8.79753 1.95697C9.00802 1.74024 9.1242 1.45517 9.1242 1.15485C9.1242 0.517948 8.60596 0 7.96934 0C7.33244 0 6.81396 0.518188 6.81396 1.15485C6.81396 1.45498 6.93014 1.74024 7.14116 1.95754C7.16637 1.98251 7.19048 2.00197 7.2143 2.02138C7.25901 2.05704 7.30445 2.10468 7.33105 2.14417C7.52424 2.49107 7.38257 2.84626 7.10172 3.00959C7.04305 3.04329 6.97893 3.06054 6.91312 3.06054L3.06102 3.06054L3.06102 6.90301C3.06102 6.96862 3.04362 7.03347 3.01113 7.09017C2.89658 7.2883 2.68666 7.41123 2.46332 7.41123C2.34383 7.41123 2.22392 7.37395 2.11623 7.30311L2.03058 7.22571L1.96631 7.14912C1.73257 6.9263 1.45196 6.81382 1.155 6.81382C0.51795 6.81382 0 7.33177 0 7.96882C0 8.60587 0.51795 9.12391 1.155 9.12391C1.4556 9.12391 1.74038 9.00774 1.9574 8.79724C1.98208 8.77203 2 8.75037 2.01687 8.72899C2.05522 8.6813 2.10473 8.63419 2.14417 8.60759C2.25958 8.54332 2.36138 8.51715 2.46303 8.51715C2.68556 8.51715 2.89495 8.63923 3.0093 8.83601C3.04305 8.89381 3.06068 8.95919 3.06068 9.02537L3.06068 12.877L12.877 12.877L12.877 9.54342L12.484 9.71539C12.2431 9.82063 11.9868 9.87422 11.7221 9.87422C10.6714 9.87422 9.81641 9.01948 9.81641 7.96848C9.81641 6.91763 10.6714 6.06275 11.7221 6.06275C11.9871 6.06275 12.2434 6.11614 12.4845 6.22197L12.8776 6.39446L12.8776 6.39446Z" />
</g>

</svg>