<svg xmlns="http://www.w3.org/2000/svg" fill="none" viewBox="0 0 25 30">
<mask id="brush">
  <rect x="0" y="0" width="100%" height="100%" fill="white" />
  <path transform="matrix(-1 0 0 1 16 0) translate(-9 14)" stroke="#000000" stroke-width="1" stroke-linecap="round" stroke-linejoin="round" d="M13.8001 8.943C14.1644 8.5787 14.2579 8.02567 14.033 7.56217C13.581 6.6307 12.8406 5.41547 11.721 4.2764C10.5334 3.06823 9.33547 2.36947 8.41037 1.94173C7.9549 1.73113 7.41693 1.8347 7.0621 2.18953L3.05723 6.1944C2.58603 6.6656 2.58603 7.42957 3.05723 7.90077L4.7397 9.58323L2.22483 12.0981C1.77147 12.5515 1.70463 13.2973 2.13373 13.7738C2.59133 14.2818 3.37467 14.2971 3.85193 13.8199L6.41413 11.2577L8.0966 12.9401C8.5678 13.4113 9.33177 13.4113 9.80297 12.9401L13.8001 8.943L13.8001 8.943Z" />
  <path transform="matrix(-1 0 0 1 16 0) translate(-9 14)" stroke="#000000" stroke-width="1" stroke-linecap="round" stroke-linejoin="round" d="M4.4965 4.75507L11.2423 11.5008" />
</mask>
<g transform="translate(0.25 0.44)" mask="url(#brush)">
  <path fill="#A079FF" d="M6.95 14.66c.64-.19 1.68-.48 2.87-.56a10.1 10.1 0 0 1-.75-4.79c.16-1.62.74-2.98 1.3-4.13l.34-.7.44-.9c.23-.49.4-.92.48-1.33.08-.4.08-.75-.02-1.09-.1-.34-.3-.7-.7-1.1a1.67 1.67 0 0 0-1.55.37L4.18 5.09c-.29.26-.48.61-.54 1L3.2 9.05a14.64 14.64 0 0 1 3.75 5.61ZM2.99 10.4l-.1.3-2.74 6.1a1.7 1.7 0 0 0 .32 1.86l4.31 4.43a8.7 8.7 0 0 0 .88-8.68 13.68 13.68 0 0 0-2.67-4.01Z" />
  <path fill="#A079FF" d="m5.78 23.62.23.02c.81.02 2.19.1 3.3.3.91.17 2.72.67 4.2 1.1 1.13.34 2.3-.57 2.46-1.74.12-.85.35-1.81.76-2.7a9.3 9.3 0 0 0-2.54-4.02 5.54 5.54 0 0 0-2.9-1.31 9.47 9.47 0 0 0-4.02.47 9.7 9.7 0 0 1-1.5 7.88Z" />
  <path fill="#A079FF" d="M17.45 19.4c.93-1.4 1.6-2.5 1.94-3.1a.85.85 0 0 0-.06-.93 18.2 18.2 0 0 1-2.14-3.52c-.58-1.39-.66-3.54-.67-4.58 0-.4-.12-.79-.37-1.1L12.8 1.92c0 .19-.04.38-.08.57a7.5 7.5 0 0 1-.56 1.56l-.46.96-.33.66a10.98 10.98 0 0 0-1.18 3.75 9.21 9.21 0 0 0 .85 4.7 6.66 6.66 0 0 1 3.88 1.62 9.75 9.75 0 0 1 2.53 3.66Z" />
<g transform="translate(9 14)">
  <path fill="#ffffff" stroke-linecap="round" stroke-linejoin="round" transform="matrix(-1 0 0 1 16 0)" d="M13.8001 8.943C14.1644 8.5787 14.2579 8.02567 14.033 7.56217C13.581 6.6307 12.8406 5.41547 11.721 4.2764C10.5334 3.06823 9.33547 2.36947 8.41037 1.94173C7.9549 1.73113 7.41693 1.8347 7.0621 2.18953L3.05723 6.1944C2.58603 6.6656 2.58603 7.42957 3.05723 7.90077L4.7397 9.58323L2.22483 12.0981C1.77147 12.5515 1.70463 13.2973 2.13373 13.7738C2.59133 14.2818 3.37467 14.2971 3.85193 13.8199L6.41413 11.2577L8.0966 12.9401C8.5678 13.4113 9.33177 13.4113 9.80297 12.9401L13.8001 8.943L13.8001 8.943Z" />
</g>
</g>
</svg>