
<svg xmlns="http://www.w3.org/2000/svg" xmlns:xlink="http://www.w3.org/1999/xlink" width="24px" height="24px" viewBox="0 0 24 24" version="1.1">
<g id="surface1">
<path style=" stroke:none;fill-rule:nonzero;fill:rgb(100%,100%,100%);fill-opacity:1;" d="M 5.851562 8.886719 C 5.636719 9.292969 5.304688 9.625 4.898438 9.835938 L 10.125 15.078125 L 11.382812 14.441406 Z M 12.742188 15.804688 L 11.484375 16.445312 L 14.128906 19.101562 C 14.34375 18.695312 14.675781 18.363281 15.082031 18.15625 Z M 18.789062 10.960938 L 15.828125 12.460938 L 16.046875 13.855469 L 19.394531 12.160156 C 19.074219 11.832031 18.863281 11.414062 18.789062 10.960938 Z M 14.113281 13.332031 L 7.117188 16.875 C 7.441406 17.203125 7.652344 17.621094 7.726562 18.074219 L 14.332031 14.726562 Z M 11.863281 4.601562 L 8.488281 11.1875 L 9.484375 12.191406 L 13.058594 5.214844 C 12.605469 5.136719 12.1875 4.921875 11.863281 4.601562 Z M 7.609375 12.902344 L 5.902344 16.238281 C 6.351562 16.316406 6.769531 16.53125 7.097656 16.851562 L 8.605469 13.902344 Z M 4.871094 9.847656 C 4.527344 10.023438 4.144531 10.101562 3.757812 10.082031 C 3.6875 10.078125 3.613281 10.070312 3.542969 10.058594 L 4.542969 16.445312 C 4.886719 16.273438 5.269531 16.191406 5.652344 16.210938 C 5.726562 16.214844 5.796875 16.222656 5.867188 16.234375 Z M 7.730469 18.105469 C 7.753906 18.253906 7.761719 18.40625 7.753906 18.554688 C 7.738281 18.859375 7.65625 19.160156 7.519531 19.433594 L 13.902344 20.457031 C 13.878906 20.308594 13.871094 20.160156 13.878906 20.007812 C 13.898438 19.703125 13.976562 19.402344 14.113281 19.128906 Z M 19.417969 12.183594 L 16.472656 17.9375 C 16.921875 18.011719 17.339844 18.226562 17.664062 18.550781 L 20.613281 12.796875 C 20.160156 12.71875 19.742188 12.507812 19.417969 12.183594 Z M 15.398438 4.046875 C 15.1875 4.453125 14.855469 4.785156 14.445312 4.996094 L 19.011719 9.578125 C 19.222656 9.171875 19.554688 8.839844 19.960938 8.628906 Z M 11.234375 3.378906 L 5.464844 6.304688 C 5.785156 6.628906 6 7.046875 6.074219 7.5 L 11.839844 4.578125 C 11.519531 4.25 11.308594 3.832031 11.234375 3.378906 Z M 14.4375 5 C 14.085938 5.179688 13.699219 5.261719 13.304688 5.242188 C 13.242188 5.238281 13.175781 5.230469 13.113281 5.222656 L 13.621094 8.492188 L 15.015625 8.71875 Z M 13.917969 10.394531 L 15.128906 18.132812 C 15.46875 17.964844 15.84375 17.886719 16.222656 17.90625 C 16.300781 17.910156 16.378906 17.921875 16.457031 17.933594 L 15.3125 10.621094 Z M 6.078125 7.523438 C 6.101562 7.675781 6.109375 7.828125 6.101562 7.980469 C 6.085938 8.285156 6.003906 8.582031 5.871094 8.851562 L 9.144531 9.378906 L 9.789062 8.121094 Z M 11.6875 8.425781 L 11.046875 9.683594 L 18.78125 10.925781 C 18.757812 10.78125 18.75 10.632812 18.757812 10.484375 C 18.777344 10.175781 18.855469 9.875 18.996094 9.601562 Z M 11.6875 8.425781 "/>
<path style=" stroke:none;fill-rule:nonzero;fill:rgb(100%,100%,100%);fill-opacity:0.996078;" d="M 15.449219 3.128906 C 15.386719 4.246094 14.433594 5.101562 13.316406 5.039062 C 12.203125 4.980469 11.347656 4.027344 11.40625 2.910156 C 11.46875 1.796875 12.421875 0.941406 13.539062 1 C 14.652344 1.0625 15.507812 2.015625 15.449219 3.128906 Z M 15.449219 3.128906 "/>
<path style=" stroke:none;fill-rule:nonzero;fill:rgb(100%,100%,100%);fill-opacity:0.996078;" d="M 23 10.714844 C 22.941406 11.828125 21.988281 12.683594 20.871094 12.625 C 19.753906 12.5625 18.902344 11.609375 18.960938 10.492188 C 19.023438 9.378906 19.976562 8.523438 21.089844 8.582031 C 22.207031 8.644531 23.0625 9.597656 23 10.714844 Z M 23 10.714844 "/>
<path style=" stroke:none;fill-rule:nonzero;fill:rgb(100%,100%,100%);fill-opacity:0.996078;" d="M 18.121094 20.238281 C 18.0625 21.355469 17.109375 22.210938 15.992188 22.148438 C 14.875 22.089844 14.019531 21.136719 14.082031 20.019531 C 14.144531 18.902344 15.097656 18.046875 16.210938 18.109375 C 17.328125 18.171875 18.183594 19.125 18.121094 20.238281 Z M 18.121094 20.238281 "/>
<path style=" stroke:none;fill-rule:nonzero;fill:rgb(100%,100%,100%);fill-opacity:0.996078;" d="M 7.550781 18.542969 C 7.492188 19.660156 6.539062 20.515625 5.421875 20.453125 C 4.304688 20.394531 3.453125 19.4375 3.511719 18.324219 C 3.574219 17.207031 4.527344 16.351562 5.640625 16.414062 C 6.757812 16.472656 7.613281 17.429688 7.550781 18.542969 Z M 7.550781 18.542969 "/>
<path style=" stroke:none;fill-rule:nonzero;fill:rgb(100%,100%,100%);fill-opacity:0.996078;" d="M 5.898438 7.96875 C 5.839844 9.085938 4.886719 9.941406 3.769531 9.878906 C 2.652344 9.820312 1.796875 8.863281 1.859375 7.75 C 1.921875 6.632812 2.875 5.777344 3.988281 5.839844 C 5.105469 5.898438 5.960938 6.855469 5.898438 7.96875 Z M 5.898438 7.96875 "/>
</g>
</svg>
